<?xml version="1.0" encoding="UTF-8"?>
<!DOCTYPE svg PUBLIC "-//W3C//DTD SVG 1.1//EN" "http://www.w3.org/Graphics/SVG/1.1/DTD/svg11.dtd">
<svg version="1.2" width="187.45mm" height="47.17mm" viewBox="1396 5124 18745 4717" preserveAspectRatio="xMidYMid" fill-rule="evenodd" stroke-width="28.222" stroke-linejoin="round" xmlns="http://www.w3.org/2000/svg" xmlns:ooo="http://xml.openoffice.org/svg/export" xmlns:xlink="http://www.w3.org/1999/xlink" xmlns:presentation="http://sun.com/xmlns/staroffice/presentation" xmlns:smil="http://www.w3.org/2001/SMIL20/" xmlns:anim="urn:oasis:names:tc:opendocument:xmlns:animation:1.0" xml:space="preserve">
 <defs class="ClipPathGroup">
  <clipPath id="presentation_clip_path" clipPathUnits="userSpaceOnUse">
   <rect x="1396" y="5124" width="18745" height="4717"/>
  </clipPath>
 </defs>
 <defs class="TextShapeIndex">
  <g ooo:slide="id1" ooo:id-list="id3 id4 id5 id6 id7 id8 id9"/>
 </defs>
 <defs class="EmbeddedBulletChars">
  <g id="bullet-char-template(57356)" transform="scale(0.00048828125,-0.00048828125)">
   <path d="M 580,1141 L 1163,571 580,0 -4,571 580,1141 Z"/>
  </g>
  <g id="bullet-char-template(57354)" transform="scale(0.00048828125,-0.00048828125)">
   <path d="M 8,1128 L 1137,1128 1137,0 8,0 8,1128 Z"/>
  </g>
  <g id="bullet-char-template(10146)" transform="scale(0.00048828125,-0.00048828125)">
   <path d="M 174,0 L 602,739 174,1481 1456,739 174,0 Z M 1358,739 L 309,1346 659,739 1358,739 Z"/>
  </g>
  <g id="bullet-char-template(10132)" transform="scale(0.00048828125,-0.00048828125)">
   <path d="M 2015,739 L 1276,0 717,0 1260,543 174,543 174,936 1260,936 717,1481 1274,1481 2015,739 Z"/>
  </g>
  <g id="bullet-char-template(10007)" transform="scale(0.00048828125,-0.00048828125)">
   <path d="M 0,-2 C -7,14 -16,27 -25,37 L 356,567 C 262,823 215,952 215,954 215,979 228,992 255,992 264,992 276,990 289,987 310,991 331,999 354,1012 L 381,999 492,748 772,1049 836,1024 860,1049 C 881,1039 901,1025 922,1006 886,937 835,863 770,784 769,783 710,716 594,584 L 774,223 C 774,196 753,168 711,139 L 727,119 C 717,90 699,76 672,76 641,76 570,178 457,381 L 164,-76 C 142,-110 111,-127 72,-127 30,-127 9,-110 8,-76 1,-67 -2,-52 -2,-32 -2,-23 -1,-13 0,-2 Z"/>
  </g>
  <g id="bullet-char-template(10004)" transform="scale(0.00048828125,-0.00048828125)">
   <path d="M 285,-33 C 182,-33 111,30 74,156 52,228 41,333 41,471 41,549 55,616 82,672 116,743 169,778 240,778 293,778 328,747 346,684 L 369,508 C 377,444 397,411 428,410 L 1163,1116 C 1174,1127 1196,1133 1229,1133 1271,1133 1292,1118 1292,1087 L 1292,965 C 1292,929 1282,901 1262,881 L 442,47 C 390,-6 338,-33 285,-33 Z"/>
  </g>
  <g id="bullet-char-template(9679)" transform="scale(0.00048828125,-0.00048828125)">
   <path d="M 813,0 C 632,0 489,54 383,161 276,268 223,411 223,592 223,773 276,916 383,1023 489,1130 632,1184 813,1184 992,1184 1136,1130 1245,1023 1353,916 1407,772 1407,592 1407,412 1353,268 1245,161 1136,54 992,0 813,0 Z"/>
  </g>
  <g id="bullet-char-template(8226)" transform="scale(0.00048828125,-0.00048828125)">
   <path d="M 346,457 C 273,457 209,483 155,535 101,586 74,649 74,723 74,796 101,859 155,911 209,963 273,989 346,989 419,989 480,963 531,910 582,859 608,796 608,723 608,648 583,586 532,535 482,483 420,457 346,457 Z"/>
  </g>
  <g id="bullet-char-template(8211)" transform="scale(0.00048828125,-0.00048828125)">
   <path d="M -4,459 L 1135,459 1135,606 -4,606 -4,459 Z"/>
  </g>
 </defs>
 <defs class="TextEmbeddedBitmaps"/>
 <g class="SlideGroup">
  <g>
   <g id="id1" class="Slide" clip-path="url(#presentation_clip_path)">
    <g class="Page">
     <g class="Group">
      <g class="com.sun.star.drawing.ClosedBezierShape">
       <g id="id3">
        <rect class="BoundingBox" stroke="none" fill="none" x="1396" y="6602" width="1817" height="2377"/>
        <path fill="rgb(0,0,0)" stroke="none" d="M 1396,6602 C 2001,6602 2606,6602 3211,6602 3211,6772 3211,6942 3211,7112 2852,7112 2493,7112 2134,7112 2134,7251 2134,7389 2134,7527 2441,7527 2747,7527 3054,7527 3054,7687 3054,7847 3054,8007 2747,8007 2441,8007 2134,8007 2134,8331 2134,8654 2134,8978 1888,8978 1642,8978 1396,8978 1396,8186 1396,7394 1396,6602 Z"/>
       </g>
      </g>
      <g class="com.sun.star.drawing.ClosedBezierShape">
       <g id="id4">
        <rect class="BoundingBox" stroke="none" fill="none" x="3423" y="7218" width="1979" height="1800"/>
        <path fill="rgb(0,0,0)" stroke="none" d="M 3423,8122 C 3423,7860 3512,7643 3689,7473 3866,7303 4106,7218 4407,7218 4752,7218 5012,7318 5188,7518 5330,7679 5400,7877 5400,8113 5400,8377 5313,8594 5137,8763 4962,8932 4719,9017 4409,9017 4132,9017 3908,8947 3738,8806 3528,8632 3423,8404 3423,8122 Z M 4085,8121 C 4085,8274 4116,8388 4178,8461 4240,8535 4318,8571 4412,8571 4507,8571 4585,8535 4646,8463 4707,8390 4738,8274 4738,8114 4738,7965 4707,7854 4645,7781 4584,7708 4507,7672 4417,7672 4321,7672 4241,7709 4179,7783 4116,7857 4085,7969 4085,8121 Z"/>
       </g>
      </g>
      <g class="com.sun.star.drawing.ClosedBezierShape">
       <g id="id5">
        <rect class="BoundingBox" stroke="none" fill="none" x="5665" y="7217" width="1357" height="1762"/>
        <path fill="rgb(0,0,0)" stroke="none" d="M 5666,7257 L 6283,7257 6283,7539 C 6343,7417 6404,7333 6467,7287 6530,7241 6608,7218 6701,7218 6799,7218 6905,7248 7021,7309 L 6816,7779 C 6739,7746 6677,7730 6632,7730 6545,7730 6478,7766 6431,7837 6363,7938 6329,8126 6329,8401 L 6329,8978 5666,8978 5666,7257 Z"/>
       </g>
      </g>
      <g class="com.sun.star.drawing.ClosedBezierShape">
       <g id="id6">
        <rect class="BoundingBox" stroke="none" fill="none" x="7217" y="7217" width="2922" height="1762"/>
        <path fill="rgb(0,0,0)" stroke="none" d="M 7217,7257 L 7833,7257 7833,7508 C 7922,7403 8011,7329 8101,7284 8191,7240 8300,7218 8428,7218 8565,7218 8674,7242 8754,7291 8833,7340 8899,7412 8950,7508 9053,7396 9148,7319 9233,7279 9319,7238 9424,7218 9549,7218 9734,7218 9878,7273 9982,7382 10086,7492 10138,7664 10138,7897 L 10138,8978 9476,8978 9476,7998 C 9476,7920 9461,7862 9431,7824 9387,7765 9332,7735 9266,7735 9188,7735 9125,7763 9078,7819 9030,7875 9006,7966 9006,8090 L 9006,8978 8345,8978 8345,8030 C 8345,7954 8341,7903 8332,7876 8318,7833 8294,7798 8259,7771 8225,7745 8184,7732 8138,7732 8062,7732 8000,7760 7951,7818 7903,7875 7878,7969 7878,8100 L 7878,8978 7217,8978 7217,7257 Z"/>
       </g>
      </g>
      <g class="com.sun.star.drawing.ClosedBezierShape">
       <g id="id7">
        <rect class="BoundingBox" stroke="none" fill="none" x="10416" y="6602" width="2588" height="2377"/>
        <path fill="rgb(0,0,255)" stroke="none" d="M 12118,8586 C 11839,8586 11560,8586 11282,8586 11243,8717 11205,8847 11167,8978 10916,8978 10666,8978 10416,8978 10714,8186 11012,7394 11309,6602 11576,6602 11843,6602 12110,6602 12407,7394 12705,8186 13003,8978 12747,8978 12491,8978 12235,8978 12196,8847 12157,8717 12118,8586 Z M 11964,8072 C 11876,7788 11789,7503 11701,7218 11614,7503 11527,7788 11440,8072 11615,8072 11789,8072 11964,8072 Z"/>
       </g>
      </g>
      <g class="com.sun.star.drawing.ClosedBezierShape">
       <g id="id8">
        <rect class="BoundingBox" stroke="none" fill="none" x="13247" y="6602" width="2339" height="2378"/>
        <path fill="rgb(0,0,255)" stroke="none" d="M 13248,8979 L 13248,6602 14471,6602 C 14698,6602 14872,6622 14992,6661 15112,6700 15208,6772 15282,6877 15355,6982 15392,7111 15392,7262 15392,7394 15364,7508 15308,7603 15251,7699 15174,7776 15076,7836 15013,7874 14927,7905 14818,7930 14906,7959 14969,7988 15009,8017 15036,8037 15076,8078 15127,8142 15178,8206 15213,8255 15230,8290 L 15585,8979 14755,8979 14363,8252 C 14313,8158 14269,8097 14230,8069 14177,8032 14117,8014 14050,8014 L 13985,8014 13985,8979 13248,8979 Z M 13985,7565 L 14295,7565 C 14328,7565 14393,7554 14489,7533 14538,7523 14578,7498 14608,7458 14639,7418 14655,7372 14655,7320 14655,7244 14630,7185 14582,7144 14533,7103 14442,7082 14308,7082 L 13985,7082 13985,7565 Z"/>
       </g>
      </g>
     </g>
     <g class="Graphic">
      <g id="id9">
       <rect class="BoundingBox" stroke="none" fill="none" x="15423" y="5124" width="4719" height="4719"/>
       <path fill="rgb(204,204,204)" stroke="none" d="M 19692,7815 C 19713,7551 19683,7292 19602,7043 L 20046,6664 C 20058,6654 20062,6636 20054,6622 19839,6201 19523,5831 19143,5551 19130,5542 19112,5542 19099,5553 L 18674,5916 C 18424,5777 18153,5695 17867,5672 16773,5585 15813,6404 15725,7497 15638,8591 16456,9552 17550,9639 18644,9727 19605,8908 19692,7815 L 19692,7815 Z M 17834,8457 L 17239,8548 16611,8632 16793,8026 16977,7453 18682,6001 C 19073,6231 19370,6592 19521,7020 L 17834,8457 17834,8457 Z"/>
       <path fill="rgb(204,204,204)" stroke="none" d="M 17291,8477 L 17758,8409 C 17622,8036 17360,7728 17013,7535 L 16872,7985 C 17059,8098 17209,8274 17291,8477 L 17291,8477 Z"/>
       <path fill="rgb(0,0,0)" stroke="none" d="M 19551,7674 C 19572,7410 19542,7151 19461,6902 L 19905,6523 C 19917,6513 19921,6495 19913,6481 19698,6060 19382,5690 19002,5410 18989,5401 18971,5401 18958,5412 L 18533,5775 C 18283,5636 18012,5554 17726,5531 16632,5444 15672,6263 15584,7356 15497,8450 16315,9411 17409,9498 18503,9586 19464,8767 19551,7674 L 19551,7674 Z M 17693,8316 L 17098,8407 16470,8491 16652,7885 16836,7312 18541,5860 C 18932,6090 19229,6451 19380,6879 L 17693,8316 17693,8316 Z"/>
       <path fill="rgb(0,0,0)" stroke="none" d="M 17150,8336 L 17617,8268 C 17481,7895 17219,7587 16872,7394 L 16731,7844 C 16918,7957 17068,8133 17150,8336 L 17150,8336 Z"/>
      </g>
     </g>
    </g>
   </g>
  </g>
 </g>
</svg>